<svg width="41" height="40" viewBox="0 0 41 40" fill="none" xmlns="http://www.w3.org/2000/svg">
<path d="M38.9298 12.6164C37.4704 8.94093 34.9545 5.78105 31.7002 3.53633C28.4459 1.29161 24.5993 0.0628765 20.6471 0.00552163C16.6948 -0.0518332 12.8143 1.06477 9.4963 3.21411C6.1783 5.36345 3.57183 8.449 2.00652 12.0805C0.441208 15.7121 -0.0126309 19.7265 0.702386 23.6161C1.4174 27.5058 3.26916 31.0959 6.02349 33.9325C8.77781 36.7691 12.311 38.7247 16.1762 39.5522C20.0414 40.3796 24.0651 40.0416 27.7383 38.5809C32.6633 36.6224 36.6092 32.7867 38.708 27.9175C40.8068 23.0483 40.8866 17.5444 38.9298 12.6164ZM23.7335 2.76307L24.6789 4.2345C23.5836 4.93852 22.75 5.98334 22.3066 7.208C24.5228 6.03446 27.1042 5.75549 29.5196 6.4285L29.0469 8.1145C27.7835 7.7656 26.4543 7.72878 25.1736 8.0072C23.8928 8.28562 22.6987 8.87095 21.6939 9.71293C21.548 9.86137 21.354 9.95297 21.1468 9.9713H21.0724C20.867 9.97524 20.6667 9.90677 20.5067 9.77787C20.3466 9.64897 20.237 9.46786 20.197 9.26624C20.1862 9.19513 20.1862 9.12278 20.197 9.05166C20.2289 7.7943 20.5679 6.56386 21.1843 5.46771C21.8007 4.37156 22.6759 3.443 23.7335 2.76307ZM8.52402 10.6457L8.21764 8.9378C9.45001 8.70692 10.7201 8.7805 11.9176 9.15216C13.1151 9.52382 14.2038 10.1823 15.0893 11.0705C15.1357 11.112 15.1768 11.1591 15.2118 11.2106C15.3376 11.39 15.3917 11.61 15.3633 11.8273C15.335 12.0445 15.2262 12.2433 15.0586 12.3843C14.8997 12.5248 14.6928 12.5985 14.4809 12.5901C13.1697 12.6658 11.8965 13.0593 10.7711 13.7368C9.64572 14.4142 8.7018 15.3553 8.02069 16.4789L6.52381 15.5767C7.81847 13.431 9.88622 11.8636 12.3012 11.1975C11.1368 10.6034 9.80793 10.4139 8.52402 10.6588V10.6457ZM26.0751 30.7639C24.2118 31.5055 22.2206 31.8725 20.2155 31.8437C18.2104 31.815 16.2306 31.3912 14.3893 30.5965C12.5479 29.8018 10.8812 28.6518 9.48427 27.2123C8.08736 25.7728 6.98768 24.0719 6.24807 22.2069L34.6274 10.9479C36.1203 14.7122 36.0581 18.9157 34.4544 22.6341C32.8506 26.3525 29.8366 29.2815 26.0751 30.7771V30.7639Z" fill="#ce5330"/>
</svg>
